<?xml version="1.0" encoding="utf-8"?>
<!-- Generator: Adobe Illustrator 26.3.1, SVG Export Plug-In . SVG Version: 6.00 Build 0)  -->
<svg version="1.2" baseProfile="tiny" id="g-mapping_project_svg-Artboard_1-interactions-img" xmlns="http://www.w3.org/2000/svg" xmlns:xlink="http://www.w3.org/1999/xlink"
	 x="0px" y="0px" viewBox="0 0 1648 937" overflow="visible" xml:space="preserve">
<g>
	<g id="central_x5F_harlem_00000164498415940039846080000012386403700213585560_">
		
		
			<path id="m2extraline_00000146493967875794198560000009420532550573102209_" fill="none" stroke="#888888" stroke-linecap="round" stroke-linejoin="round" d="
			M871.395,374.886l1.701,288.648l-27.878,0.295l0.137,59.039l27.298,0.026l1.023,142.674l-4.959,1.991l-2.856,2.851l-1.005,0.557
			l-143.772-0.394l-4.31-3.674l-4.121,0.769l-1.872,4.827l-19.573,0.239l-0.15-45.39l-23.976-40.52l-1.155-138.811l24.337,0.152
			l0.53-15.451l6.088-38.238l1.01-46.033l-32.649-195.626l15.71-0.371l0.061-131.148l-2.375-7.02l-3.088-2.836l-10.555-4.002
			l-2.306-12.364l1.494-13.712l-3.522-20.026l0.397-11.589l23.884-91.415l2.131,19.395l20.624,45.41l67.38,98.313l93.536,148.234
			L871.395,374.886z"/>
	</g>
	<g id="community_x5F_gardens_00000145036655876217306930000000248075187306357377_">
		<path fill="#E48400" fill-opacity="0.2" d="M737.3,854.4l0.2-6.6h2.9l-0.2,6.6H737.3z"/>
		<path fill="#E48400" fill-opacity="0.2" d="M740,794.7v-3.6l0.9-0.1l0.1,3.7L740,794.7z"/>
		<path fill="#E48400" fill-opacity="0.2" d="M707.6,783.2l0.2,4.1h-2l-0.1-3.8L707.6,783.2z"/>
		<path fill="#E48400" fill-opacity="0.2" d="M755.3,720.5l-0.2-6.8h1.6l0.1,6.8H755.3z"/>
		<path fill="#E48400" fill-opacity="0.2" d="M733.7,708h1.9l0.1,3h-1.8L733.7,708z"/>
		<path fill="#E48400" fill-opacity="0.2" d="M747.5,690.8v-6.3l2.8-0.1l0.1,6.4L747.5,690.8z"/>
		<path fill="#E48400" fill-opacity="0.2" d="M722.9,690.7l0.3-5h1.4l-0.1,5.1L722.9,690.7z"/>
		<path fill="#E48400" fill-opacity="0.2" d="M706.2,625.2l1.7,0.1v2l7.4,0.3l-0.1,1.4l0.1,1.4l-9.1-0.3L706.2,625.2z"/>
		<path fill="#E48400" fill-opacity="0.2" d="M696.8,625.2l4.8-0.2l-0.1,5H697L696.8,625.2z"/>
		<path fill="#E48400" fill-opacity="0.2" d="M741.5,341.7l-4.6-0.1v-4.8l10,0.1l0.3,2.7l0.1,2.6L741.5,341.7z"/>
		<path fill="#E48400" fill-opacity="0.2" d="M708.4,250.9v-1.5h4.6v1.5H708.4z"/>
		<path fill="#E48400" fill-opacity="0.2" d="M698.6,247.2l-0.1-3h7.4v3H698.6z"/>
		<path fill="#E48400" fill-opacity="0.2" d="M775.8,507.3l0.2,6.6h-1.8l-0.2-6.5L775.8,507.3z"/>
		<path fill="#E48400" fill-opacity="0.2" d="M782.8,521.7l4.3,0.1l-0.1,6.6l-4,0.1L782.8,521.7z"/>
		<path fill="#E48400" fill-opacity="0.2" d="M788.7,521.8h-1.6l-0.1-6.6h1.6L788.7,521.8z"/>
		<path fill="#E48400" fill-opacity="0.2" d="M789.9,521.9l0.1-6.7l6-0.1l0.1,6.7L789.9,521.9z"/>
		<path fill="#E48400" stroke="#888888" stroke-width="0.25" stroke-linecap="round" stroke-linejoin="round" d="M740,794.7v-3.6
			l0.9-0.1l0.1,3.7L740,794.7z"/>
		<path fill="#E48400" stroke="#888888" stroke-width="0.25" stroke-linecap="round" stroke-linejoin="round" d="M707.6,783.2
			l0.2,4.1h-2l-0.1-3.8L707.6,783.2z"/>
		<path fill="#E48400" stroke="#888888" stroke-width="0.25" stroke-linecap="round" stroke-linejoin="round" d="M755.3,720.5
			l-0.2-6.8h1.6l0.1,6.8H755.3z"/>
		<path fill="#E48400" stroke="#888888" stroke-width="0.25" stroke-linecap="round" stroke-linejoin="round" d="M733.7,708h1.9
			l0.1,3h-1.8L733.7,708z"/>
		<path fill="#E48400" stroke="#888888" stroke-width="0.25" stroke-linecap="round" stroke-linejoin="round" d="M747.5,690.8v-6.3
			l2.8-0.1l0.1,6.4L747.5,690.8z"/>
		<path fill="#E48400" stroke="#888888" stroke-width="0.25" stroke-linecap="round" stroke-linejoin="round" d="M722.9,690.7l0.3-5
			h1.4l-0.1,5.1L722.9,690.7z"/>
		<path fill="#E48400" stroke="#888888" stroke-width="0.25" stroke-linecap="round" stroke-linejoin="round" d="M706.2,625.2
			l1.7,0.1v2l7.4,0.3l-0.1,1.4l0.1,1.4l-9.1-0.3L706.2,625.2z"/>
		<path fill="#E48400" stroke="#888888" stroke-width="0.25" stroke-linecap="round" stroke-linejoin="round" d="M696.8,625.2
			l4.8-0.2l-0.1,5H697L696.8,625.2z"/>
		<path fill="#E48400" stroke="#888888" stroke-width="0.25" stroke-linecap="round" stroke-linejoin="round" d="M775.8,507.3
			l0.2,6.6h-1.8l-0.2-6.5L775.8,507.3z"/>
		<path fill="#E48400" stroke="#888888" stroke-width="0.25" stroke-linecap="round" stroke-linejoin="round" d="M782.8,521.7
			l4.3,0.1l-0.1,6.6l-4,0.1L782.8,521.7z"/>
		<path fill="#E48400" stroke="#888888" stroke-width="0.25" stroke-linecap="round" stroke-linejoin="round" d="M788.7,521.8h-1.6
			l-0.1-6.6h1.6L788.7,521.8z"/>
		<path fill="#E48400" stroke="#888888" stroke-width="0.25" stroke-linecap="round" stroke-linejoin="round" d="M789.9,521.9
			l0.1-6.7l6-0.1l0.1,6.7L789.9,521.9z"/>
		<path fill="#E48400" stroke="#888888" stroke-width="0.25" stroke-linecap="round" stroke-linejoin="round" d="M792.1,623.6v-6.8
			h0.8l-0.1,2.9h0.5v1.1l-0.4,0.1v2.8L792.1,623.6z"/>
		<path fill="#E48400" stroke="#888888" stroke-width="0.25" stroke-linecap="round" stroke-linejoin="round" d="M799,684.4l0.1-2.7
			l-1,0.1v-1.4l0.9-0.1v-1.9l3-0.1l0.1,6L799,684.4z"/>
		<path fill="#E48400" stroke="#888888" stroke-width="0.25" stroke-linecap="round" stroke-linejoin="round" d="M826.1,662l-0.1-7
			h1.1l0.1,7H826.1z"/>
		<path fill="#E48400" stroke="#888888" stroke-width="0.25" stroke-linecap="round" stroke-linejoin="round" d="M837.7,601.3
			l-0.1-6.3l3.2,0.1l0.1,6.2H837.7z"/>
		<path fill="#E48400" stroke="#888888" stroke-width="0.25" stroke-linecap="round" stroke-linejoin="round" d="M831.4,587.8h0.9
			l0.2,7.2h-0.9L831.4,587.8z"/>
		<path fill="#E48400" stroke="#888888" stroke-width="0.25" stroke-linecap="round" stroke-linejoin="round" d="M845.9,565.9h-2.1
			l0.3-5.9l1.8-0.1V565.9z"/>
		<path fill="#E48400" stroke="#888888" stroke-width="0.25" stroke-linecap="round" stroke-linejoin="round" d="M862.4,730.1
			l0.8,0.2l-0.1,3.7h-0.7V730.1z"/>
		<path fill="#E48400" stroke="#888888" stroke-width="0.25" stroke-linecap="round" stroke-linejoin="round" d="M693.9,622l0.2-1.2
			l5.6,0.2l-0.1,1.3L693.9,622z"/>
		<path fill="#E48400" stroke="#888888" stroke-width="0.25" stroke-linecap="round" stroke-linejoin="round" d="M741.5,341.7
			l-4.6-0.1v-4.8l10,0.1l0.3,2.7l0.1,2.6L741.5,341.7z"/>
		<path fill="#E48400" stroke="#888888" stroke-width="0.25" stroke-linecap="round" stroke-linejoin="round" d="M708.4,250.9v-1.5
			h4.6v1.5H708.4z"/>
		<path fill="#E48400" stroke="#888888" stroke-width="0.25" stroke-linecap="round" stroke-linejoin="round" d="M698.6,247.2
			l-0.1-3h7.4v3H698.6z"/>
		<path fill="#E48400" fill-opacity="0.2" d="M792.1,623.6v-6.8h0.8l-0.1,2.9h0.5v1.1l-0.4,0.1v2.8L792.1,623.6z"/>
		<path fill="#E48400" fill-opacity="0.2" d="M799,684.4l0.1-2.7l-1,0.1v-1.4l0.9-0.1v-1.9l3-0.1l0.1,6L799,684.4z"/>
		<path fill="#E48400" fill-opacity="0.2" d="M826.1,662l-0.1-7h1.1l0.1,7H826.1z"/>
		<path fill="#E48400" fill-opacity="0.2" d="M837.7,601.3l-0.1-6.3l3.2,0.1l0.1,6.2H837.7z"/>
		<path fill="#E48400" fill-opacity="0.2" d="M831.4,587.8h0.9l0.2,7.2h-0.9L831.4,587.8z"/>
		<path fill="#E48400" fill-opacity="0.2" d="M845.9,565.9h-2.1l0.3-5.9l1.8-0.1V565.9z"/>
		<path fill="#E48400" fill-opacity="0.2" d="M862.4,730.1l0.8,0.2l-0.1,3.7h-0.7V730.1z"/>
		<path fill="#E48400" fill-opacity="0.2" d="M693.9,622l0.2-1.2l5.6,0.2l-0.1,1.3L693.9,622z"/>
		<path fill="#E48400" stroke="#888888" stroke-width="0.25" stroke-linecap="round" stroke-linejoin="round" d="M737.3,854.4
			l0.2-6.6h2.9l-0.2,6.6H737.3z"/>
	</g>
	<g id="small_x5F_parks_00000121989588729266954620000011369449896245276309_">
		<path id="Collyer_Brothers_Park_00000119826555826460291560000003905972260252833163_" fill="#6B8E23" fill-opacity="0.2" d="
			M866.7,601.2v-1.9h6.2l0.1,2.1L866.7,601.2z"/>
		
			<path id="Collyer_Brothers_Park_00000158026332092206858320000003243780378760461713_" fill="#6B8E23" stroke="#888888" stroke-width="0.25" stroke-linecap="round" stroke-linejoin="round" d="
			M866.7,601.2v-1.9h6.2l0.1,2.1L866.7,601.2z"/>
		
			<path id="Rev._Linnette_C._Williamson_Memorial_Park_00000140715838859630637420000003823111146294594493_" fill="#6B8E23" stroke="#888888" stroke-width="0.25" stroke-linecap="round" stroke-linejoin="round" d="
			M833.9,600.5l-0.1-6l1.5-0.1v6L833.9,600.5z"/>
		
			<path id="Rev._Linnette_C._Williamson_Memorial_Park_00000003817569540891100440000006806373114253016755_" fill="#6B8E23" fill-opacity="0.2" d="
			M833.9,600.5l-0.1-6l1.5-0.1v6L833.9,600.5z"/>
		<path id="Hancock_Park_00000081643914748178710620000005198812261365140128_" fill="#6B8E23" fill-opacity="0.2" d="M691.6,674.4
			L691.6,674.4c0-3.2,0-6.5,0-9.7l0,0c2.2,3.5,4.5,7.1,6.7,10.6C696,675,693.8,674.7,691.6,674.4z"/>
		
			<path id="Hancock_Park_00000088098889424709830290000017778633556328574618_" fill="#6B8E23" stroke="#888888" stroke-width="0.25" stroke-linecap="round" stroke-linejoin="round" d="
			M691.9,674.5v-9.9c2.2,3.6,4.4,7.2,6.7,10.8L691.9,674.5z"/>
		
			<path id="Street_Garden_00000056399336443754899490000009073138226150569663_" fill="#6B8E23" stroke="#888888" stroke-width="0.25" stroke-linecap="round" stroke-linejoin="round" d="
			M800.9,550.9l0.1-7h4.2l-0.2,4.7l0.8-0.1l0.1,2.4L800.9,550.9z"/>
		<path id="Street_Garden_00000067217721649489732720000016690667984571687866_" fill="#6B8E23" fill-opacity="0.2" d="M800.9,550.9
			l0.1-7h4.2l-0.2,4.7l0.8-0.1l0.1,2.4L800.9,550.9z"/>
		
			<path id="Abyssinian_Tot_Lot_00000030467634675051859050000012081469828794118822_" fill="#6B8E23" stroke="#888888" stroke-width="0.25" stroke-linecap="round" stroke-linejoin="round" d="
			M784.8,440.4h2.8l0.2,6.6h-3.2L784.8,440.4z"/>
		<path id="Abyssinian_Tot_Lot_00000002347086979460416470000017869011248108707231_" fill="#6B8E23" fill-opacity="0.2" d="
			M784.7,440.1h2.8l0.2,6.6h-3.2L784.7,440.1z"/>
		
			<path id="Elizabeth_Langley_Memorial_Garden_00000142167823132577858390000001770807508280975548_" fill="#6B8E23" fill-opacity="0.2" d="
			M792.7,468l-0.2-6.4h3v6.4H792.7z"/>
		
			<path id="Elizabeth_Langley_Memorial_Garden_00000172414831426308729020000016340857729120559805_" fill="#6B8E23" stroke="#888888" stroke-width="0.25" stroke-linecap="round" stroke-linejoin="round" d="
			M792.7,468l-0.2-6.4h3v6.4H792.7z"/>
	</g>
</g>
<style>
#g-mapping_project_svg-Artboard_1-interactions-img rect, #g-mapping_project_svg-Artboard_1-interactions-img circle, #g-mapping_project_svg-Artboard_1-interactions-img path, #g-mapping_project_svg-Artboard_1-interactions-img line, #g-mapping_project_svg-Artboard_1-interactions-img polyline, #g-mapping_project_svg-Artboard_1-interactions-img polygon { vector-effect: non-scaling-stroke; }
</style>
</svg>

