<?xml version="1.0" encoding="utf-8"?>
<!-- Generator: Adobe Illustrator 26.3.1, SVG Export Plug-In . SVG Version: 6.00 Build 0)  -->
<svg version="1.2" baseProfile="tiny" id="g-mapping_project_2nd_part_backup2-Artboard_1-interactions-img" xmlns="http://www.w3.org/2000/svg" xmlns:xlink="http://www.w3.org/1999/xlink"
	 x="0px" y="0px" viewBox="0 0 1648 937" overflow="visible" xml:space="preserve">
<g>
	<g id="harlem_x5F_grown_x5F_134_00000119097104396502753870000001339238178487945872_">
		<g id="arrow_x5F_33_00000176026463178117506500000006903005717882760879_">
			<path fill="none" stroke="#888888" stroke-width="2" d="M852.06,261.753C967.541,217.189,1125.187,230.604,1325,302"/>
			<g>
				<path fill="#888888" d="M855.43,260.509l1.347-8.326l-0.289-0.058l-9.128,8.748c-3.453,2.376-6.907,4.751-10.36,7.128
					c4.132-0.707,8.263-1.415,12.395-2.121l12.642-0.101l0.182-0.207L855.43,260.509z"/>
			</g>
		</g>
		<g id="arrow_x5F_32_00000059282605860304836930000008422615676783876760_">
			<path fill="none" stroke="#888888" stroke-width="2" d="M697.946,127.489C802.961,88.839,1011.979,147.009,1325,302"/>
			<g>
				<path fill="#888888" d="M701.328,126.263l1.235-8.343l-0.29-0.055l-9.01,8.869c-3.421,2.422-6.843,4.843-10.264,7.266
					c4.122-0.763,8.243-1.525,12.365-2.287l12.64-0.27l0.179-0.209L701.328,126.263z"/>
			</g>
		</g>
		<g id="arrow_x5F_31_00000034787531515380249580000006053004472155473536_">
			<path fill="none" stroke="#888888" stroke-width="2" d="M702.176,445.741C852.338,496.043,1061.28,465.13,1329,353"/>
			<g>
				<path fill="#888888" d="M705.6,446.829l6.522-5.347l-0.178-0.235l-12.633,0.511c-4.161-0.507-8.322-1.013-12.483-1.519
					c3.564,2.206,7.129,4.411,10.693,6.618l9.541,8.296l0.273-0.035L705.6,446.829z"/>
			</g>
		</g>
		
			<circle id="point_x5F_3_00000026152166034962485440000003158921894680869019_" fill="#FAC898" stroke="#888888" stroke-width="2" stroke-linecap="round" stroke-linejoin="round" cx="1064.93" cy="801.317" r="13.5"/>
	</g>
	<g id="collyer_x5F_brothers_x5F_park_00000060741998605894312610000017781083068682310540_">
		<g id="arrow_x5F_2_00000182495279960021862800000017942483694330506414_">
			<path fill="none" stroke="#888888" stroke-width="2" d="M927.99,393.416c99.453,39.146,232.644,25.828,399.574-39.954"/>
			<g>
				<path fill="#888888" d="M931.341,394.707l6.832-4.945l-0.164-0.246l-12.64-0.249c-4.123-0.756-8.246-1.512-12.369-2.267
					c3.425,2.416,6.85,4.832,10.275,7.249l9.024,8.855l0.275-0.018L931.341,394.707z"/>
			</g>
		</g>
		
			<circle id="point_x5F_2_00000143575310367737345870000014789058233011143297_" fill="#C1E1C1" stroke="#888888" stroke-width="2" stroke-linecap="round" stroke-linejoin="round" cx="624.133" cy="801.317" r="13.5"/>
	</g>
	<g id="first_x5F_pocket_x5F_park_00000111166040296527490570000006997612299286878133_">
		<g id="arrow_x5F_1_00000031908192441206229330000010746730318379157409_">
			<path fill="none" stroke="#888888" stroke-width="2" d="M820.568,391.323c94.916,44.18,226.962,39.372,396.136-14.423"/>
			<g>
				<path fill="#888888" d="M823.832,392.82l7.123-4.516l-0.148-0.255l-12.601-1.026c-4.069-1.008-8.137-2.016-12.206-3.023
					c3.27,2.622,6.54,5.244,9.81,7.867l8.463,9.393l0.275-0.001L823.832,392.82z"/>
			</g>
		</g>
		
			<circle id="point_x5F_1_00000159443516405066027710000018205970276186440876_" fill="#C1E1C1" stroke="#888888" stroke-width="2" stroke-linecap="round" stroke-linejoin="round" cx="593.258" cy="801.317" r="13.5"/>
	</g>
</g>
<style>
#g-mapping_project_2nd_part_backup2-Artboard_1-interactions-img rect, #g-mapping_project_2nd_part_backup2-Artboard_1-interactions-img circle, #g-mapping_project_2nd_part_backup2-Artboard_1-interactions-img path, #g-mapping_project_2nd_part_backup2-Artboard_1-interactions-img line, #g-mapping_project_2nd_part_backup2-Artboard_1-interactions-img polyline, #g-mapping_project_2nd_part_backup2-Artboard_1-interactions-img polygon { vector-effect: non-scaling-stroke; }
</style>
</svg>

