<?xml version="1.0" encoding="utf-8"?>
<!-- Generator: Adobe Illustrator 26.3.1, SVG Export Plug-In . SVG Version: 6.00 Build 0)  -->
<svg version="1.2" baseProfile="tiny" id="g-mapping_project_1st_part-Artboard_1-interactions-img" xmlns="http://www.w3.org/2000/svg" xmlns:xlink="http://www.w3.org/1999/xlink"
	 x="0px" y="0px" viewBox="0 0 1648 937" overflow="visible" xml:space="preserve">
<g>
	<g id="small_x5F_parks_00000110461070290882140920000013439470800899931053_">
		
			<path id="Collyer_Brothers_Park_00000176022907600854165170000013065983033925886338_" fill="#C1E1C1" stroke="#888888" stroke-width="0.25" stroke-linecap="round" stroke-linejoin="round" d="
			M863.406,600.692v-1.9h6.2l0.1,2.1L863.406,600.692z"/>
		
			<path id="Rev._Linnette_C._Williamson_Memorial_Park_00000035492254025827586480000006271330360039846046_" fill="#C1E1C1" stroke="#888888" stroke-width="0.25" stroke-linecap="round" stroke-linejoin="round" d="
			M830.606,599.992l-0.1-6l1.5-0.1v6L830.606,599.992z"/>
		
			<path id="Hancock_Park_00000109026705561920358890000001550892881432441248_" fill="#C1E1C1" stroke="#888888" stroke-width="0.25" stroke-linecap="round" stroke-linejoin="round" d="
			M688.606,673.992v-9.9c2.2,3.6,4.4,7.2,6.7,10.8L688.606,673.992z"/>
		
			<path id="Street_Garden_00000100358085858503579410000008380045994682508478_" fill="#C1E1C1" stroke="#888888" stroke-width="0.25" stroke-linecap="round" stroke-linejoin="round" d="
			M797.606,550.392l0.1-7h4.2l-0.2,4.7l0.8-0.1l0.1,2.4L797.606,550.392z"/>
		
			<path id="Abyssinian_Tot_Lot_00000035501731721938814090000008099330379494760578_" fill="#C1E1C1" stroke="#888888" stroke-width="0.25" stroke-linecap="round" stroke-linejoin="round" d="
			M781.506,439.892h2.8l0.2,6.6h-3.2L781.506,439.892z"/>
		
			<path id="Elizabeth_Langley_Memorial_Garden_00000170275941692320704590000013900750485580888470_" fill="#C1E1C1" stroke="#888888" stroke-width="0.25" stroke-linecap="round" stroke-linejoin="round" d="
			M789.406,467.492l-0.2-6.4h3v6.4H789.406z"/>
	</g>
	<g id="community_x5F_gardens_00000153676101567550113950000008003332604126994585_">
		<path fill="#FAC898" stroke="#888888" stroke-width="0.25" stroke-linecap="round" stroke-linejoin="round" d="M736.706,794.192
			v-3.6l0.9-0.1l0.1,3.7L736.706,794.192z"/>
		<path fill="#FAC898" stroke="#888888" stroke-width="0.25" stroke-linecap="round" stroke-linejoin="round" d="M704.306,782.692
			l0.2,4.1h-2l-0.1-3.8L704.306,782.692z"/>
		<path fill="#FAC898" stroke="#888888" stroke-width="0.25" stroke-linecap="round" stroke-linejoin="round" d="M752.006,719.992
			l-0.2-6.8h1.6l0.1,6.8H752.006z"/>
		<path fill="#FAC898" stroke="#888888" stroke-width="0.25" stroke-linecap="round" stroke-linejoin="round" d="M730.406,707.492
			h1.9l0.1,3h-1.8L730.406,707.492z"/>
		<path fill="#FAC898" stroke="#888888" stroke-width="0.25" stroke-linecap="round" stroke-linejoin="round" d="M744.206,690.292
			v-6.3l2.8-0.1l0.1,6.4L744.206,690.292z"/>
		<path fill="#FAC898" stroke="#888888" stroke-width="0.25" stroke-linecap="round" stroke-linejoin="round" d="M719.606,690.192
			l0.3-5h1.4l-0.1,5.1L719.606,690.192z"/>
		<path fill="#FAC898" stroke="#888888" stroke-width="0.25" stroke-linecap="round" stroke-linejoin="round" d="M702.906,624.692
			l1.7,0.1v2l7.4,0.3l-0.1,1.4l0.1,1.4l-9.1-0.3L702.906,624.692z"/>
		<path fill="#FAC898" stroke="#888888" stroke-width="0.25" stroke-linecap="round" stroke-linejoin="round" d="M693.506,624.692
			l4.8-0.2l-0.1,5h-4.5L693.506,624.692z"/>
		<path fill="#FAC898" stroke="#888888" stroke-width="0.25" stroke-linecap="round" stroke-linejoin="round" d="M772.506,506.792
			l0.2,6.6h-1.8l-0.2-6.5L772.506,506.792z"/>
		<path fill="#FAC898" stroke="#888888" stroke-width="0.25" stroke-linecap="round" stroke-linejoin="round" d="M779.506,521.192
			l4.3,0.1l-0.1,6.6l-4,0.1L779.506,521.192z"/>
		<path fill="#FAC898" stroke="#888888" stroke-width="0.25" stroke-linecap="round" stroke-linejoin="round" d="M785.406,521.292
			h-1.6l-0.1-6.6h1.6L785.406,521.292z"/>
		<path fill="#FAC898" stroke="#888888" stroke-width="0.25" stroke-linecap="round" stroke-linejoin="round" d="M786.606,521.392
			l0.1-6.7l6-0.1l0.1,6.7L786.606,521.392z"/>
		<path fill="#FAC898" stroke="#888888" stroke-width="0.25" stroke-linecap="round" stroke-linejoin="round" d="M788.806,623.092
			v-6.8h0.8l-0.1,2.9h0.5v1.1l-0.4,0.1v2.8L788.806,623.092z"/>
		<path fill="#FAC898" stroke="#888888" stroke-width="0.25" stroke-linecap="round" stroke-linejoin="round" d="M795.706,683.892
			l0.1-2.7l-1,0.1v-1.4l0.9-0.1v-1.9l3-0.1l0.1,6L795.706,683.892z"/>
		<path fill="#FAC898" stroke="#888888" stroke-width="0.25" stroke-linecap="round" stroke-linejoin="round" d="M822.806,661.492
			l-0.1-7h1.1l0.1,7H822.806z"/>
		<path fill="#FAC898" stroke="#888888" stroke-width="0.25" stroke-linecap="round" stroke-linejoin="round" d="M834.406,600.792
			l-0.1-6.3l3.2,0.1l0.1,6.2H834.406z"/>
		<path fill="#FAC898" stroke="#888888" stroke-width="0.25" stroke-linecap="round" stroke-linejoin="round" d="M828.106,587.292
			h0.9l0.2,7.2h-0.9L828.106,587.292z"/>
		<path fill="#FAC898" stroke="#888888" stroke-width="0.25" stroke-linecap="round" stroke-linejoin="round" d="M842.606,565.392
			h-2.1l0.3-5.9l1.8-0.1V565.392z"/>
		<path fill="#FAC898" stroke="#888888" stroke-width="0.25" stroke-linecap="round" stroke-linejoin="round" d="M859.106,729.592
			l0.8,0.2l-0.1,3.7h-0.7V729.592z"/>
		<path fill="#FAC898" stroke="#888888" stroke-width="0.25" stroke-linecap="round" stroke-linejoin="round" d="M690.606,621.492
			l0.2-1.2l5.6,0.2l-0.1,1.3L690.606,621.492z"/>
		<path fill="#FAC898" stroke="#888888" stroke-width="0.25" stroke-linecap="round" stroke-linejoin="round" d="M738.206,341.192
			l-4.6-0.1v-4.8l10,0.1l0.3,2.7l0.1,2.6L738.206,341.192z"/>
		<path fill="#FAC898" stroke="#888888" stroke-width="0.25" stroke-linecap="round" stroke-linejoin="round" d="M705.106,250.392
			v-1.5h4.6v1.5H705.106z"/>
		<path fill="#FAC898" stroke="#888888" stroke-width="0.25" stroke-linecap="round" stroke-linejoin="round" d="M695.306,246.692
			l-0.1-3h7.4v3H695.306z"/>
		<path fill="#FAC898" stroke="#888888" stroke-width="0.25" stroke-linecap="round" stroke-linejoin="round" d="M734.006,853.892
			l0.2-6.6h2.9l-0.2,6.6H734.006z"/>
	</g>
	<path id="central_x5F_harlem" style="opacity:0.5;" fill="#FFFFFF" stroke="#000000" stroke-miterlimit="10" d="M-51.5-45.5v1042h1763
		v-1042H-51.5z M867.15,866.29l-2.86,2.85l-1,0.56l-143.77-0.4l-4.31-3.67l-4.12,0.77l-1.88,4.83l-19.57,0.24l-0.15-45.39
		l-23.97-40.52l-1.16-138.82l24.34,0.16l0.53-15.45l6.09-38.24l1.01-46.04l-32.65-195.62l15.71-0.37l0.06-131.15l-2.38-7.02
		l-3.09-2.84l-10.55-4l-2.31-12.36l1.5-13.71l-3.52-20.03l0.39-11.59l23.89-91.41l2.13,19.39l20.62,45.41l67.38,98.31l93.54,148.24
		l2.78,5.2l1.7,288.65l-27.88,0.29l0.14,59.04l27.3,0.02l1.02,142.68L867.15,866.29z"/>
</g>
<style>
#g-mapping_project_1st_part-Artboard_1-interactions-img rect, #g-mapping_project_1st_part-Artboard_1-interactions-img circle, #g-mapping_project_1st_part-Artboard_1-interactions-img path, #g-mapping_project_1st_part-Artboard_1-interactions-img line, #g-mapping_project_1st_part-Artboard_1-interactions-img polyline, #g-mapping_project_1st_part-Artboard_1-interactions-img polygon { vector-effect: non-scaling-stroke; }
</style>
</svg>

