<?xml version="1.0" encoding="utf-8"?>
<!-- Generator: Adobe Illustrator 26.3.1, SVG Export Plug-In . SVG Version: 6.00 Build 0)  -->
<svg version="1.2" baseProfile="tiny" id="g-mapping_project_2nd_part-Artboard_1-interactions-img" xmlns="http://www.w3.org/2000/svg" xmlns:xlink="http://www.w3.org/1999/xlink"
	 x="0px" y="0px" viewBox="0 0 1648 937" overflow="visible" xml:space="preserve">
<g>
	<g id="harlem_x5F_grown_x5F_134_00000098188436439559287690000003994357264001128346_">
		<g id="arrow_x5F_line_00000050627572239060148610000012910121770633974199_">
			<path fill="none" stroke="#888888" stroke-width="2" d="M852.06,336.753C967.541,292.189,1125.187,305.604,1325,377"/>
			<g>
				<path fill="#888888" d="M855.43,335.509l1.347-8.326l-0.289-0.058l-9.128,8.748c-3.453,2.376-6.907,4.751-10.36,7.128
					c4.132-0.707,8.263-1.415,12.395-2.121l12.642-0.101l0.182-0.207L855.43,335.509z"/>
			</g>
		</g>
		<g id="arrow_x5F_line_00000170977306903849616260000003100299350969265805_">
			<path fill="none" stroke="#888888" stroke-width="2" d="M697.946,202.489C802.961,163.839,1011.979,222.009,1325,377"/>
			<g>
				<path fill="#888888" d="M701.328,201.263l1.235-8.343l-0.29-0.055l-9.01,8.869c-3.421,2.422-6.843,4.843-10.264,7.266
					c4.122-0.763,8.243-1.525,12.365-2.287l12.64-0.27l0.179-0.209L701.328,201.263z"/>
			</g>
		</g>
		
			<circle fill="#FAC898" stroke="#888888" stroke-width="2" stroke-linecap="round" stroke-linejoin="round" cx="1064.93" cy="876.317" r="13.5"/>
		<g id="arrow_x5F_line_00000065038331502241251000000010165899521318840218_">
			<path fill="none" stroke="#888888" stroke-width="2" d="M702.176,520.741C852.338,571.043,1061.28,540.13,1329,428"/>
			<g>
				<path fill="#888888" d="M705.6,521.829l6.522-5.347l-0.178-0.235l-12.633,0.511c-4.161-0.507-8.322-1.013-12.483-1.519
					c3.564,2.206,7.129,4.411,10.693,6.618l9.541,8.296l0.273-0.035L705.6,521.829z"/>
			</g>
		</g>
	</g>
	<g id="collyer_x5F_brothers_x5F_park_00000084528257008115744450000011172706161979316868_">
		<g id="arrow_x5F_line_00000034803006257914727200000009217775963715936653_">
			<path fill="none" stroke="#888888" stroke-width="2" d="M927.99,468.416c99.453,39.146,232.644,25.828,399.574-39.954"/>
			<g>
				<path fill="#888888" d="M931.341,469.707l6.832-4.945l-0.164-0.246l-12.64-0.249c-4.123-0.756-8.246-1.512-12.369-2.267
					c3.425,2.416,6.85,4.832,10.275,7.249l9.024,8.855l0.275-0.018L931.341,469.707z"/>
			</g>
		</g>
		
			<circle fill="#C1E1C1" stroke="#888888" stroke-width="2" stroke-linecap="round" stroke-linejoin="round" cx="624.133" cy="876.317" r="13.5"/>
	</g>
	<g id="first_x5F_pocket_x5F_park_00000147899147210906568750000009191933831998633883_">
		<g id="arrow_x5F_line_00000053527833501783043080000000141784169531694761_">
			<path fill="none" stroke="#888888" stroke-width="2" d="M820.568,466.323c94.916,44.18,226.962,39.372,396.136-14.423"/>
			<g>
				<path fill="#888888" d="M823.832,467.82l7.123-4.516l-0.148-0.255l-12.601-1.026c-4.069-1.008-8.137-2.016-12.206-3.023
					c3.27,2.622,6.54,5.244,9.81,7.867l8.463,9.393l0.275-0.001L823.832,467.82z"/>
			</g>
		</g>
		
			<circle fill="#C1E1C1" stroke="#888888" stroke-width="2" stroke-linecap="round" stroke-linejoin="round" cx="593.258" cy="876.317" r="13.5"/>
	</g>
	<g id="inmap_x5F_view1_00000121998014509066042350000001609508110893634485_">
		<rect x="1432.5" y="802.5" fill="none" stroke="#E50053" stroke-width="2" width="99" height="75"/>
	</g>
</g>
<style>
#g-mapping_project_2nd_part-Artboard_1-interactions-img rect, #g-mapping_project_2nd_part-Artboard_1-interactions-img circle, #g-mapping_project_2nd_part-Artboard_1-interactions-img path, #g-mapping_project_2nd_part-Artboard_1-interactions-img line, #g-mapping_project_2nd_part-Artboard_1-interactions-img polyline, #g-mapping_project_2nd_part-Artboard_1-interactions-img polygon { vector-effect: non-scaling-stroke; }
</style>
</svg>

