<?xml version="1.0" encoding="utf-8"?>
<!-- Generator: Adobe Illustrator 26.4.1, SVG Export Plug-In . SVG Version: 6.00 Build 0)  -->
<svg version="1.2" baseProfile="tiny" id="g-mapping_project_2nd_part-Artboard_1-interactions-img" xmlns="http://www.w3.org/2000/svg" xmlns:xlink="http://www.w3.org/1999/xlink"
	 x="0px" y="0px" viewBox="0 0 1648 937" overflow="visible" xml:space="preserve">
<g>
	<g id="harlem_x5F_grown_x5F_134_00000065052897339746718740000008154981192614229901_">
		<g id="arrow_x5F_33_00000041282079793148987940000005981012009367705994_">
			<path fill="none" stroke="#888888" stroke-width="2" d="M648.619,243.565c43.306-41.377,126.28-107.1,246.988-132.138
				C948.852,100.383,996.379,99.963,1034,103"/>
			<g>
				<path fill="#888888" d="M651.271,241.139l-1.877-8.223l-0.29,0.054l-5.177,11.534c-2.309,3.498-4.618,6.996-6.927,10.495
					c3.564-2.206,7.128-4.413,10.692-6.619l11.68-4.839l0.091-0.26L651.271,241.139z"/>
			</g>
		</g>
		<g id="arrow_x5F_32_00000147932787174935858660000000047238416141770632_">
			<path fill="none" stroke="#888888" stroke-width="2" d="M504.939,135.569C541.954,127.773,580.663,120.816,621,115
				c151.987-21.913,290.293-22.31,409-13"/>
			<g>
				<path fill="#888888" d="M508.467,134.899l2.803-7.955l-0.274-0.109l-10.536,6.989c-3.82,1.725-7.64,3.45-11.46,5.176
					c4.191,0.037,8.383,0.074,12.574,0.113l12.46,2.145l0.215-0.171L508.467,134.899z"/>
			</g>
		</g>
		<g id="arrow_x5F_31_00000076595164248408051190000012566055870621670061_">
			<path fill="none" stroke="#888888" stroke-width="2" d="M489.606,399.096C497.328,382.379,507.577,362.493,521,341
				c6.985-11.184,61.347-96.569,150-157c147.573-100.595,320.333-84.442,359-80"/>
			<g>
				<path fill="#888888" d="M491.145,395.849l-4.78-6.949l-0.25,0.158l-0.553,12.631c-0.855,4.104-1.709,8.207-2.563,12.311
					c2.497-3.366,4.995-6.733,7.493-10.099l9.068-8.809l-0.012-0.275L491.145,395.849z"/>
			</g>
		</g>
		
			<circle id="point_x5F_3_00000001642657824529046880000003208379113651645366_" fill="#FAC898" stroke="#888888" stroke-width="2" stroke-linecap="round" stroke-linejoin="round" cx="1064.93" cy="801.317" r="13.5"/>
	</g>
	<g id="first_x5F_pocket_00000041273950709825300180000003949325498895164307_">
		<g id="arrow_x5F_1_00000031900979072646575320000000850420932598701448_">
			<path fill="none" stroke="#888888" stroke-width="2" d="M600.971,336.188C611.012,300.01,635.177,236.848,694,183
				c100.15-91.681,223.376-85.521,246.52-83.932"/>
			<g>
				<path fill="#888888" d="M602.028,332.751l-5.864-6.062l-0.22,0.197l1.546,12.548c-0.164,4.189-0.327,8.377-0.49,12.565
					c1.906-3.733,3.812-7.466,5.718-11.2l7.485-10.189l-0.057-0.269L602.028,332.751z"/>
			</g>
		</g>
		
			<circle id="point_x5F_1_00000131350555480477796600000005964058336081151904_" fill="#C1E1C1" stroke="#888888" stroke-width="2" stroke-linecap="round" stroke-linejoin="round" cx="590.258" cy="801.317" r="13.5"/>
	</g>
	<g id="collyer_x5F_park_00000090295113171991764730000006410162436757926044_">
		<g id="arrow_x5F_2_00000143609484370599845990000004952262192877012392_">
			<path fill="none" stroke="#888888" stroke-width="2" d="M698.915,340.808C703.792,307.87,718.609,247.997,767,193
				c66.348-75.405,150.914-90.618,174-94"/>
			<g>
				<path fill="#888888" d="M699.547,337.269L692.962,332l-0.193,0.223l3.124,12.251c0.369,4.175,0.738,8.351,1.107,12.526
					c1.417-3.945,2.834-7.889,4.252-11.834l6.133-11.056l-0.091-0.26L699.547,337.269z"/>
			</g>
		</g>
		
			<circle id="point_x5F_2_00000100344326152999733580000005329237438235197629_" fill="#C1E1C1" stroke="#888888" stroke-width="2" stroke-linecap="round" stroke-linejoin="round" cx="624.133" cy="801.317" r="13.5"/>
	</g>
</g>
<style>
#g-mapping_project_2nd_part-Artboard_1-interactions-img rect, #g-mapping_project_2nd_part-Artboard_1-interactions-img circle, #g-mapping_project_2nd_part-Artboard_1-interactions-img path, #g-mapping_project_2nd_part-Artboard_1-interactions-img line, #g-mapping_project_2nd_part-Artboard_1-interactions-img polyline, #g-mapping_project_2nd_part-Artboard_1-interactions-img polygon { vector-effect: non-scaling-stroke; }
</style>
</svg>

