<?xml version="1.0" encoding="utf-8"?>
<!-- Generator: Adobe Illustrator 26.4.1, SVG Export Plug-In . SVG Version: 6.00 Build 0)  -->
<svg version="1.2" baseProfile="tiny" id="g-mapping_project_2nd_part_backup2-Artboard_1-interactions-img" xmlns="http://www.w3.org/2000/svg" xmlns:xlink="http://www.w3.org/1999/xlink"
	 x="0px" y="0px" viewBox="0 0 1648 937" overflow="visible" xml:space="preserve">
<g>
	<g id="harlem_x5F_grown_x5F_134_00000121993011338806355330000001684901036862008704_">
		<g id="arrow_x5F_33_00000011008474403841115170000008228118612150104460_">
			<path fill="none" stroke="#888888" stroke-width="2" d="M852.06,261.753C967.541,217.189,1125.187,230.604,1325,302"/>
			<g>
				<path fill="#888888" d="M855.43,260.509l1.347-8.326l-0.289-0.058l-9.128,8.748c-3.453,2.376-6.907,4.751-10.36,7.128
					c4.132-0.707,8.263-1.415,12.395-2.121l12.642-0.101l0.182-0.207L855.43,260.509z"/>
			</g>
		</g>
		<g id="arrow_x5F_32_00000023990988669133839050000007868969818456826247_">
			<path fill="none" stroke="#888888" stroke-width="2" d="M697.946,127.489C802.961,88.839,1011.979,147.009,1325,302"/>
			<g>
				<path fill="#888888" d="M701.328,126.263l1.235-8.343l-0.29-0.055l-9.01,8.869c-3.421,2.422-6.843,4.843-10.264,7.266
					c4.122-0.763,8.243-1.525,12.365-2.287l12.64-0.27l0.179-0.209L701.328,126.263z"/>
			</g>
		</g>
		<g id="arrow_x5F_31_00000001632944635494395720000006102259279832942779_">
			<path fill="none" stroke="#888888" stroke-width="2" d="M702.176,445.741C852.338,496.043,1061.28,465.13,1329,353"/>
			<g>
				<path fill="#888888" d="M705.6,446.829l6.522-5.347l-0.178-0.235l-12.633,0.511c-4.161-0.507-8.322-1.013-12.483-1.519
					c3.564,2.206,7.129,4.411,10.693,6.618l9.541,8.296l0.273-0.035L705.6,446.829z"/>
			</g>
		</g>
		
			<circle id="point_x5F_3_00000165212291295687304460000009333963866624089985_" fill="#FAC898" stroke="#888888" stroke-width="2" stroke-linecap="round" stroke-linejoin="round" cx="1064.93" cy="801.317" r="13.5"/>
	</g>
	<g id="collyer_x5F_brothers_x5F_park_00000008125860862825550380000009725564574083648184_">
		<g id="arrow_x5F_2_00000060741191064034585050000004830239320188242876_">
			<path fill="none" stroke="#888888" stroke-width="2" d="M927.99,393.416c99.453,39.146,232.644,25.828,399.574-39.954"/>
			<g>
				<path fill="#888888" d="M931.341,394.707l6.832-4.945l-0.164-0.246l-12.64-0.249c-4.123-0.756-8.246-1.512-12.369-2.267
					c3.425,2.416,6.85,4.832,10.275,7.249l9.024,8.855l0.275-0.018L931.341,394.707z"/>
			</g>
		</g>
		
			<circle id="point_x5F_2_00000089568884360002603200000009319882352022657970_" fill="#C1E1C1" stroke="#888888" stroke-width="2" stroke-linecap="round" stroke-linejoin="round" cx="624.133" cy="801.317" r="13.5"/>
	</g>
	<g id="first_x5F_pocket_x5F_park_00000049911874318459654190000002542214131677937798_">
		<g id="arrow_x5F_1_00000083796317705529608310000017939108902904934570_">
			<path fill="none" stroke="#888888" stroke-width="2" d="M816.606,383.246C932.568,437.193,1095.366,430.444,1305,363"/>
			<g>
				<path fill="#888888" d="M819.887,384.709l7.095-4.56l-0.15-0.254l-12.607-0.947c-4.075-0.983-8.15-1.965-12.225-2.947
					c3.287,2.602,6.573,5.203,9.859,7.806l8.521,9.34l0.275-0.003L819.887,384.709z"/>
			</g>
		</g>
		
			<circle id="point_x5F_1_00000112627649369725719460000000265786236067894670_" fill="#C1E1C1" stroke="#888888" stroke-width="2" stroke-linecap="round" stroke-linejoin="round" cx="593.258" cy="801.317" r="13.5"/>
	</g>
</g>
<style>
#g-mapping_project_2nd_part_backup2-Artboard_1-interactions-img rect, #g-mapping_project_2nd_part_backup2-Artboard_1-interactions-img circle, #g-mapping_project_2nd_part_backup2-Artboard_1-interactions-img path, #g-mapping_project_2nd_part_backup2-Artboard_1-interactions-img line, #g-mapping_project_2nd_part_backup2-Artboard_1-interactions-img polyline, #g-mapping_project_2nd_part_backup2-Artboard_1-interactions-img polygon { vector-effect: non-scaling-stroke; }
</style>
</svg>

